<?xml version="1.0" encoding="utf-8"?>
<!-- Generated by IcoMoon.io -->
<svg version="1.1" xmlns="http://www.w3.org/2000/svg" xmlns:xlink="http://www.w3.org/1999/xlink" width="13136" height="128" viewBox="0 0 13136 128">
<svg id="icon-Ellipse1" width="32" height="32" viewBox="0 0 32 43">
<path d="M32 16c0 8.837-7.163 16-16 16s-16-7.163-16-16c0-8.837 7.163-16 16-16s16 7.163 16 16z"></path>
</svg>
<svg id="icon-Ellipse2" width="32" height="32" viewBox="0 0 32 43">
<path d="M32 16c0 8.837-7.163 16-16 16s-16-7.163-16-16c0-8.837 7.163-16 16-16s16 7.163 16 16z"></path>
</svg>
<svg id="icon-entrecomillas" width="43" height="32" viewBox="0 0 43 32" x="96" y="0">
<path fill="#e1e1e1" d="M32.014 0c1.929 0 3.75 0.52 5.464 1.561s3.107 2.537 4.179 4.488c1.029 1.951 1.543 4.249 1.543 6.894s-0.643 5.225-1.929 7.74c-0.429 0.911-1.2 2.081-2.314 3.512-1.157 1.431-2.229 2.667-3.214 3.707l-4.050 4.098-2.893-4.813c2.014-1.257 3.793-2.818 5.336-4.683 1.543-1.821 2.314-3.491 2.314-5.008 0-0.78-0.171-1.409-0.514-1.886-1.5 1.084-3.171 1.626-5.014 1.626-1.329 0-2.593-0.412-3.793-1.236-1.243-0.78-2.229-1.821-2.957-3.122-0.771-1.258-1.157-2.558-1.157-3.902 0-1.518 0.45-2.97 1.35-4.358 0.857-1.388 1.993-2.515 3.407-3.382 1.371-0.824 2.786-1.236 4.243-1.236zM8.936 0c1.929 0 3.75 0.52 5.464 1.561s3.107 2.537 4.179 4.488c1.029 1.951 1.543 4.249 1.543 6.894 0 1.864-0.236 3.534-0.707 5.008-0.471 1.518-1.286 3.1-2.443 4.748-1.114 1.561-2.164 2.862-3.15 3.902-0.986 1.084-2.7 2.884-5.143 5.398l-2.893-4.813c2.014-1.257 3.793-2.818 5.336-4.683 1.543-1.821 2.314-3.491 2.314-5.008 0-0.78-0.171-1.409-0.514-1.886-1.5 1.084-3.171 1.626-5.014 1.626-1.329 0-2.593-0.412-3.793-1.236-1.243-0.78-2.229-1.821-2.957-3.122-0.771-1.258-1.157-2.558-1.157-3.902 0-1.518 0.429-2.97 1.286-4.358s1.993-2.515 3.407-3.382c1.371-0.824 2.786-1.236 4.243-1.236z"></path>
</svg>
<svg id="icon-home" width="35" height="32" viewBox="0 0 35 43">
<path d="M34.472 15.381c0.633-0.649 0.572-1.644-0.136-2.222l-15.601-12.734c-0.708-0.578-1.843-0.566-2.537 0.027l-15.654 13.386c-0.693 0.593-0.727 1.587-0.075 2.219l0.392 0.381c0.651 0.632 1.704 0.707 2.349 0.168l1.17-0.977v14.308c0 0.878 0.763 1.588 1.703 1.588h6.102c0.94 0 1.703-0.711 1.703-1.588v-10.010h7.783v10.010c-0.014 0.877 0.659 1.588 1.6 1.588h6.467c0.94 0 1.703-0.711 1.703-1.588v-14.106c0 0 0.323 0.264 0.722 0.591s1.234 0.065 1.866-0.585l0.444-0.455z"></path>
</svg>
<svg id="icon-linea1" width="13136" height="32" viewBox="0 0 13136 32" x="0" y="96">
<path fill="none" stroke="#e1e1e1" stroke-linejoin="miter" stroke-linecap="butt" stroke-miterlimit="4" stroke-width="16" d="M0 16l13136 0.001"></path>
</svg>
<svg id="icon-linea2" width="13136" height="32" viewBox="0 0 13136 32" x="0" y="96">
<path fill="none" stroke="#e1e1e1" stroke-linejoin="miter" stroke-linecap="butt" stroke-miterlimit="4" stroke-width="16" d="M0 16l13136-0.001"></path>
</svg>
</svg>
